<svg xmlns="http://www.w3.org/2000/svg" width="157" height="194" viewBox="0 0 157 194" version="1.1">
  <path d="M76.243 15.25c-.55.688-1.934 3.102-3.074 5.366l-2.072 4.115-12.799.486c-7.747.295-15.22 1.177-18.935 2.235C32.768 29.331 27 33.679 27 36.772c0 3.111 5.875 11.002 10.53 14.143 4.908 3.313 13.502 7.337 13.409 6.279-.033-.382-2.013-2.269-4.4-4.194-6.825-5.505-8.257-10.081-4.289-13.709 3.575-3.269 8-5.126 14.867-6.24 3.51-.57 6.903-1.039 7.539-1.043 1.762-.012.479 3.565-3.814 10.632C58.729 46.118 57 49.206 57 49.502s-1.065 2.225-2.366 4.286C52.402 57.324 46 68.995 46 69.528c0 .952 13.639 5.76 16.607 5.854 3.423.109 3.897-.244 6.552-4.882 1.573-2.75 4.051-7.356 5.506-10.235l2.644-5.234 2.336 3.165c1.284 1.741 2.622 4.07 2.973 5.177.351 1.106 2.281 4.737 4.288 8.069 2.007 3.332 4.169 7.251 4.805 8.709 1.278 2.93 2.657 3.287 17.039 4.412 5.209.407 8.25.28 8.25-.344 0-1.585-2.305-6.381-5.262-10.949-1.506-2.327-2.738-4.524-2.738-4.883 0-.359-3.537-6.78-7.859-14.27-4.323-7.489-9.087-16.041-10.587-19.004l-2.727-5.388 20.676.478c11.372.262 20.074.142 19.337-.266-.737-.409-8.99-1.485-18.34-2.391-27.771-2.691-24.72-1.804-27.797-8.078-2.76-5.628-3.73-6.377-5.46-4.218M24 63.964c0 1.506 11.798 10.947 14.542 11.636 1.352.339 2.448 1.131 2.435 1.758-.013.628-2.263 4.963-5 9.634C33.24 91.662 31 96.064 31 96.774c0 .996 2.678 1.225 11.75 1.008l11.75-.282 3.5-6.789c2.933-5.688 3.824-6.69 5.5-6.179 1.1.336 9.487 2.491 18.638 4.79 12.319 3.095 17.121 4.736 18.5 6.325 1.754 2.022 2.512 2.115 13.112 1.621 8.19-.382 11.25-.872 11.25-1.803 0-.772 1.947-1.545 4.92-1.954 8.456-1.163 10.684-6.408 5.569-13.114-2.973-3.898-16.088-10.88-22.489-11.971-2.628-.448-1.431.436 4.802 3.549 5.778 2.886 8.889 5.112 10.234 7.324 1.914 3.148 1.914 3.196-.061 5.17-1.537 1.537-3.666 2.078-9.308 2.362-10.364.524-40.531-4.175-53.15-8.278-5.509-1.792-11.273-3.562-12.807-3.934-1.535-.373-6.105-2.229-10.155-4.125C35.39 67.14 25.397 63 24.463 63c-.255 0-.463.434-.463.964M22.016 147.969C21.009 149.851 13 171.716 13 172.583c0 .229 1.167.417 2.594.417 1.752 0 2.763-.649 3.116-2 .448-1.711 1.364-2 6.339-2 4.938 0 5.912.302 6.451 2 .438 1.379 1.513 2 3.464 2h2.829l-3.397-9.25c-1.869-5.088-4.11-11.162-4.98-13.5-1.253-3.368-2.076-4.25-3.964-4.25-1.346 0-2.84.856-3.436 1.969M60 151c0 2-.5 3-1.5 3-.933 0-1.5.944-1.5 2.5s.567 2.5 1.5 2.5c1.19 0 1.5 1.444 1.5 7 0 6.8.071 7 2.5 7s2.5-.2 2.5-7c0-6.333.19-7 2-7 1.467 0 2-.667 2-2.5s-.533-2.5-2-2.5c-1.556 0-2-.667-2-3 0-2.533-.389-3-2.5-3s-2.5.467-2.5 3M44.388 153.98C41.2 155.268 38 159.902 38 163.231c0 3.985 2.774 8.433 6.125 9.821 3.214 1.331 8.194.474 10.018-1.724 1.064-1.282.967-1.774-.569-2.897-1.348-.986-2.374-1.073-3.779-.321-1.439.77-2.548.627-4.362-.562-4.5-2.948-2.089-9.289 3.15-8.287 2.933.56 6.417-.624 6.417-2.182 0-.887-6.171-4.126-7.651-4.016-.467.035-1.799.448-2.961.917M77 153.68c-.825.313-2.737 1.723-4.25 3.132-4.724 4.402-3.329 12.484 2.717 15.74 2.307 1.243 4.061 1.513 6.132.945 1.596-.437 4.138-.694 5.651-.571l2.75.225v-19.199l-3.75.14c-2.062.077-4.65-.112-5.75-.42-1.1-.309-2.675-.305-3.5.008M95.75 154.572c-2.198 1.192-2.75 2.2-2.75 5.016 0 3.216.394 3.699 4.5 5.515 5.568 2.463 5.974 4.387.75 3.557-4.907-.781-6.958.392-4.524 2.586 2.621 2.361 6.751 3.101 9.431 1.689 6.249-3.293 4.898-9.21-2.657-11.638-3.822-1.228-3.407-2.771.776-2.885 4.915-.133 5.724-.329 5.724-1.386 0-1.126-5.274-4.045-7.2-3.986-.715.022-2.537.711-4.05 1.532M131.734 154.994c-4.65 3.658-2.824 9.085 3.64 10.814 3.81 1.019 2.712 2.733-1.558 2.431-4.035-.285-5.636 1.068-3.833 3.241 3.082 3.713 11.481 2.325 13.112-2.166 1.051-2.897-2.106-6.938-6.107-7.817-1.731-.38-2.988-1.3-2.988-2.188 0-1.183.739-1.396 3.25-.937 1.787.327 3.925.169 4.75-.352 1.332-.842 1.331-1.117-.013-2.462-2.702-2.702-7.219-2.95-10.253-.564M109 154.742c0 .481 1.383 4.664 3.073 9.295 2.926 8.017 3.049 9.347 1.37 14.793-.646 2.097-.439 2.297 2.08 2 2.361-.278 3.07-1.112 4.531-5.33.953-2.75 3.119-8.713 4.814-13.25l3.082-8.25h-2.924c-2.667 0-3.076.483-4.658 5.5-.953 3.025-1.994 5.5-2.314 5.5-.319 0-1.25-2.363-2.069-5.25-1.289-4.541-1.861-5.293-4.237-5.566-1.512-.174-2.748.077-2.748.558M23.569 158.218C21.403 163.351 21.563 164 25 164c3.415 0 3.702-1.12 1.569-6.135l-1.43-3.365-1.57 3.718M77.223 159.557c-2.696 1.888-2.881 5.538-.394 7.788 2.506 2.268 4.764 2.075 6.614-.568 2.058-2.937 1.964-4.37-.443-6.777-2.408-2.408-2.917-2.447-5.777-.443" fill="#f2f6f5" fill-rule="evenodd"/>
</svg>
