<?xml version="1.0" encoding="UTF-8"?>
<svg preserveAspectRatio="xMidYMid meet" data-bbox="-5.708 69.962 1445.588 297.246" viewBox="0 0 1498 466.88" height="466.88" width="1498" xmlns="http://www.w3.org/2000/svg" data-type="ugc" role="presentation" aria-hidden="true" aria-label="">
    <g>
        <defs>
            <linearGradient gradientUnits="userSpaceOnUse" gradientTransform="rotate(-180 -1938.785 -86.735)scale(32.13)" y2="-12.2" x2="-121.15" y1="-12.2" x1="-128.47" id="b8809725-5ff1-4b33-b858-3b2debec51cc_comp-kbgakxea_r_comp-mmv0b67u">
                <stop stop-color="#ec2027" offset="0"></stop>
                <stop stop-color="#ec2527" offset=".14"></stop>
                <stop stop-color="#ee3429" offset=".31"></stop>
                <stop stop-color="#f04e2d" offset=".51"></stop>
                <stop stop-color="#f47232" offset=".72"></stop>
                <stop stop-color="#f89f38" offset=".93"></stop>
                <stop stop-color="#faaf3b" offset="1"></stop>
            </linearGradient>
            <clipPath id="034aabcd-f9b0-4c4c-9512-d6dca151804b_comp-kbgakxea_r_comp-mmv0b67u">
                <path d="M97.69 184.41c-37.76 37.76-37.76 98.98 0 136.74l68.38-68.38c37.76-37.76 37.76-99 0-136.76l-68.38 68.38z"></path>
            </clipPath>
        </defs>
        <g clip-path="url(#034aabcd-f9b0-4c4c-9512-d6dca151804b_comp-kbgakxea_r_comp-mmv0b67u)">
            <path transform="rotate(-70.1 131.89 218.59)" fill="url(#b8809725-5ff1-4b33-b858-3b2debec51cc_comp-kbgakxea_r_comp-mmv0b67u)" d="M252.83 116.03v205.12H10.96V116.03z"></path>
        </g>
        <path d="M237.43 192.22c-.79.82-1.21 1.91-1.14 3.05L108.5 323.06c-1.14-.07-2.23.35-3.05 1.14-1.54 1.54-1.54 4.07 0 5.6 1.56 1.54 4.07 1.54 5.6 0 .79-.82 1.21-1.91 1.14-3.05l127.79-127.76c1.14.07 2.23-.35 3.05-1.14 1.54-1.54 1.54-4.07 0-5.6s-4.07-1.54-5.6 0" fill="#ffffff"></path>
        <path d="M246.78 203.92c-.79.82-1.21 1.91-1.14 3.05L120.21 332.4c-1.14-.07-2.23.35-3.05 1.14-1.54 1.54-1.54 4.07 0 5.6s4.07 1.54 5.6 0c.79-.79 1.21-1.91 1.14-3.05l125.43-125.43c1.14.07 2.23-.35 3.05-1.14 1.54-1.54 1.54-4.07 0-5.6s-4.07-1.54-5.6 0" fill="#ffffff"></path>
        <path d="M254.12 217.41c-.79.82-1.21 1.91-1.14 3.05L133.7 339.74c-1.14-.07-2.23.35-3.02 1.14-1.56 1.56-1.56 4.07 0 5.6 1.54 1.54 4.07 1.54 5.6 0 .79-.79 1.21-1.91 1.14-3.05L256.7 224.17c1.14.07 2.23-.35 3.05-1.14 1.54-1.54 1.54-4.07 0-5.6s-4.07-1.54-5.6 0" fill="#ffffff"></path>
        <path d="M259.35 232.98c-.79.82-1.21 1.91-1.14 3.05L149.26 344.98c-1.14-.07-2.23.35-3.05 1.14-1.54 1.56-1.54 4.07 0 5.6s4.07 1.54 5.6 0c.79-.79 1.21-1.91 1.14-3.05L261.9 239.72c1.14.07 2.23-.35 3.05-1.14 1.54-1.54 1.54-4.07 0-5.6s-4.07-1.54-5.6 0" fill="#ffffff"></path>
        <path d="M262.05 251.05c-.79.82-1.21 1.91-1.14 3.05l-93.55 93.55c-1.14-.07-2.23.35-3.05 1.14-1.54 1.54-1.54 4.07 0 5.6s4.07 1.54 5.6 0c.79-.79 1.21-1.91 1.14-3.05l93.55-93.55c1.14.07 2.23-.35 3.05-1.14 1.54-1.54 1.54-4.07 0-5.6s-4.07-1.54-5.6 0" fill="#ffffff"></path>
        <path d="M260.34 273.57c-.79.82-1.21 1.91-1.14 3.05l-69.32 69.32c-1.14-.07-2.23.35-3.05 1.14-1.54 1.54-1.54 4.07 0 5.6 1.54 1.56 4.07 1.56 5.6 0 .79-.79 1.21-1.91 1.14-3.02l69.32-69.32c1.14.07 2.23-.35 3.05-1.14 1.54-1.54 1.54-4.07 0-5.6s-4.07-1.54-5.6 0" fill="#ffffff"></path>
        <path d="M255.01 300.2c-.79.82-1.21 1.91-1.14 3.05l-37.36 37.36c-1.14-.07-2.23.35-3.05 1.14-1.54 1.54-1.54 4.07 0 5.6s4.07 1.54 5.6 0c.79-.79 1.21-1.91 1.14-3.05l37.39-37.36c1.14.07 2.23-.35 3.05-1.14 1.54-1.54 1.54-4.07 0-5.6s-4.07-1.54-5.6 0" fill="#ffffff"></path>
        <path d="M618.89 239.8c0-6.62-.77-10.02-1.44-11.7-.82-2.16-1.93-2.83-2.8-3.2-1.39-.57-4.09-1.29-8.9-1.39-4.59-.1-10.26-.12-17.06-.12h-29.18c-8.16 0-14.78.15-19.64.47-5.36.32-8.06 1.09-9.37 1.66-1.14.5-1.76 1.12-2.11 2.16-.47 1.29-.99 3.79-.99 8.41 0 3.92.4 6.15.72 7.34.17.64.47 1.17 1.39 1.66.79.42 2.85 1.24 7.61 1.69 4.24.42 10.14.67 17.6.74l41.63.55c10.17.15 18.12.69 24.3 1.71 6.82 1.12 11.93 3 15.62 5.7 3.92 2.9 6.57 6.82 7.83 11.65 1.07 4.12 1.61 9.05 1.61 15.1 0 6.5-.67 12.1-1.98 16.66-1.51 5.26-4.51 9.52-8.93 12.69-4.17 3.02-9.77 5.08-17.16 6.32-6.72 1.12-15.57 1.69-26.31 1.69h-32.68c-9.74 0-18.05-.42-24.74-1.26-7.29-.92-13.31-2.83-17.85-5.7-4.91-3.1-8.43-7.71-10.51-13.71-1.88-5.43-2.8-12.32-2.8-21.03h24.67c0 5.75.47 10.14 1.36 13.07.64 2.11 1.66 3.5 3.07 4.29 1.31.74 3.89 1.66 8.75 1.96 4.66.27 10.74.42 18.05.42h31.98c8.08 0 14.53-.25 19.14-.74 5.16-.55 7.41-1.56 8.31-2.11 1.12-.69 1.76-1.61 2.08-3 .57-2.31.87-5.5.87-9.55 0-4.34-.42-6.72-.77-7.96-.2-.67-.52-1.19-1.49-1.66-.89-.42-3.22-1.21-8.5-1.59-4.69-.32-11.21-.55-19.39-.69l-38.83-.55c-9.84-.15-17.93-.74-24-1.76-6.77-1.14-11.85-3-15.57-5.65-4.02-2.85-6.72-6.72-8.06-11.5-1.14-4.07-1.69-8.93-1.69-14.83 0-6.52.77-11.85 2.36-16.27 1.81-4.98 5.11-8.95 9.84-11.75 4.31-2.58 10.04-4.31 17.53-5.28 6.84-.89 15.72-1.36 26.41-1.36h29.88c9.62 0 17.78.3 24.27.89 7.24.67 12.92 2.21 17.41 4.74 4.88 2.75 8.41 7.04 10.46 12.67 1.83 5.06 2.73 11.6 2.73 20.03h-24.7l-.05.1Z" fill="#ffffff"></path>
        <path fill="#ffffff" d="M779.24 202.68v45.65h-88.17v-45.65h-25.02V318h25.02v-47.83h88.17V318h24.99V202.68z"></path>
        <path fill="#ffffff" d="M823.62 202.73v21.84h58.61v93.5h24.99v-93.5h58.69v-21.84z"></path>
        <path d="M1257.71 244.33c0-5.88-.52-10.39-1.54-13.41-.77-2.31-1.93-3.87-3.57-4.79-2.11-1.19-5.23-1.93-9.27-2.26-4.74-.35-10.86-.55-18.12-.55h-34.46c-6.42 0-11.9.17-16.29.55-3.82.32-6.87 1.02-9.07 2.06-1.74.82-3.05 2.13-3.99 3.99-1.21 2.36-2.06 5.8-2.55 10.22-.55 4.86-.79 11.18-.79 18.82v2.68c0 7.36.27 13.51.79 18.27.47 4.34 1.34 7.79 2.55 10.19.99 1.96 2.36 3.35 4.14 4.29 2.18 1.14 5.23 1.88 9 2.26 4.34.42 9.79.64 16.19.64h34.46c7.31 0 13.46-.15 18.2-.45 4.07-.27 7.19-.97 9.32-2.08 1.59-.84 2.7-2.33 3.47-4.54 1.02-2.98 1.54-7.44 1.54-13.26h24.6c0 8.9-.99 15.92-3.05 21.45-2.23 6.02-5.93 10.69-10.98 13.81-4.71 2.9-10.81 4.83-18.2 5.73-6.77.82-15.15 1.24-24.89 1.24h-34.46c-10.76 0-19.81-.72-26.9-2.16-7.79-1.56-14.03-4.59-18.6-9-4.54-4.39-7.71-10.61-9.45-18.47-1.59-7.19-2.38-16.59-2.38-27.92v-2.68c0-9.32.5-17.28 1.44-23.65 1.02-6.79 2.85-12.5 5.45-16.96 2.78-4.76 6.67-8.45 11.5-10.98 4.51-2.36 10.14-3.97 16.76-4.79 6.15-.77 13.59-1.14 22.14-1.14h34.46c9.77 0 18.15.45 24.94 1.36 7.39.97 13.51 3 18.2 6 5.03 3.22 8.73 7.93 10.93 14.01 2.03 5.6 3.02 12.65 3.02 21.52h-24.6.05Z" fill="#ffffff"></path>
        <path fill="#ffffff" d="M1414.88 202.73v45.67h-88.16v-45.67h-25.02v115.34h25.02v-47.83h88.16v47.83h25V202.73z"></path>
        <path fill="#ffffff" d="M379.06 296.15v-24.89h103.71v-21.84H379.06v-24.9h103.71v-21.84H354.04V318h128.73v-21.85z"></path>
        <path fill="#ffffff" d="M1010.29 296.23v-24.92h103.72v-21.82h-103.72v-24.92h103.72v-21.84H985.3v115.34h128.71v-21.84z"></path>
    </g>
</svg>

